<svg xmlns="http://www.w3.org/2000/svg" width="1600" height="900" viewBox="0 0 1600 900" role="img" aria-labelledby="title desc">
  <title id="title">AgentCorp system overview</title>
  <desc id="desc">Research-style overview of AgentCorp as a SKILL.md based multi-agent delivery pipeline with host plugins, orchestrated phases, independent review, verification, and evidence artifacts.</desc>
  <defs>
    <marker id="arrow" markerWidth="10" markerHeight="10" refX="8.5" refY="5" orient="auto">
      <path d="M1,1 L8.5,5 L1,9 Z" fill="#172033"/>
    </marker>
    <marker id="arrow-red" markerWidth="10" markerHeight="10" refX="8.5" refY="5" orient="auto">
      <path d="M1,1 L8.5,5 L1,9 Z" fill="#b85450"/>
    </marker>
    <style>
      .bg { fill: #fbfaf7; }
      .title { font: 700 34px Arial, Helvetica, sans-serif; fill: #111827; }
      .subtitle { font: 400 17px Arial, Helvetica, sans-serif; fill: #4b5563; }
      .section { font: 700 18px Arial, Helvetica, sans-serif; fill: #111827; }
      .box-title { font: 700 17px Arial, Helvetica, sans-serif; fill: #111827; }
      .text { font: 400 14px Arial, Helvetica, sans-serif; fill: #273244; }
      .small { font: 400 12.5px Arial, Helvetica, sans-serif; fill: #374151; }
      .tiny { font: 400 11px Arial, Helvetica, sans-serif; fill: #4b5563; }
      .mono { font: 400 12px "SFMono-Regular", Consolas, "Liberation Mono", monospace; fill: #1f2937; }
      .mono-small { font: 400 11px "SFMono-Regular", Consolas, "Liberation Mono", monospace; fill: #1f2937; }
      .source { fill: #ffffff; stroke: #94a3b8; stroke-width: 1.4; rx: 10; }
      .host { fill: #eef6ff; stroke: #6c8ebf; stroke-width: 1.5; rx: 10; }
      .orch { fill: #fff7ed; stroke: #d79b00; stroke-width: 2; rx: 14; }
      .work { fill: #eef6ff; stroke: #6c8ebf; stroke-width: 1.6; rx: 11; }
      .review { fill: #fff1f0; stroke: #b85450; stroke-width: 1.6; rx: 11; }
      .verify { fill: #eef8ef; stroke: #82b366; stroke-width: 1.6; rx: 11; }
      .ledger { fill: #f8fafc; stroke: #94a3b8; stroke-width: 1.4; rx: 14; }
      .gate { fill: #fff9db; stroke: #d79b00; stroke-width: 1.3; rx: 8; }
      .out { fill: #edf7ed; stroke: #4f8f5b; stroke-width: 1.8; rx: 13; }
      .line { stroke: #172033; stroke-width: 2; fill: none; marker-end: url(#arrow); }
      .thin { stroke: #64748b; stroke-width: 1.5; fill: none; marker-end: url(#arrow); }
      .dash { stroke: #b85450; stroke-width: 1.7; fill: none; stroke-dasharray: 7 6; marker-end: url(#arrow-red); }
      .link { stroke: #94a3b8; stroke-width: 1.2; fill: none; stroke-dasharray: 5 5; }
    </style>
  </defs>

  <rect class="bg" width="1600" height="900"/>
  <text class="title" x="52" y="58">AgentCorp: evidence-gated multi-agent software delivery</text>
  <text class="subtitle" x="52" y="88">Agent Skills are packaged once, loaded by Claude Code and Codex, then orchestrated into a traceable delivery run.</text>

  <!-- Packaging layer -->
  <text class="section" x="52" y="130">Project packaging</text>
  <rect class="source" x="52" y="150" width="390" height="95"/>
  <text class="box-title" x="76" y="180">Single skill source</text>
  <text class="mono" x="76" y="206">agentcorp/&lt;skill&gt;/SKILL.md</text>
  <text class="small" x="76" y="228">27 roles, shared references, validation tools</text>

  <rect class="host" x="505" y="150" width="250" height="95"/>
  <text class="box-title" x="529" y="180">Claude Code</text>
  <text class="small" x="529" y="206">decision-heavy roles:</text>
  <text class="small" x="529" y="228">orchestrator, planners, review leads</text>

  <rect class="host" x="815" y="150" width="250" height="95"/>
  <text class="box-title" x="839" y="180">Codex</text>
  <text class="small" x="839" y="206">execution-heavy roles:</text>
  <text class="small" x="839" y="228">engineers, fixers, API/E2E/regression testers</text>

  <rect class="source" x="1128" y="150" width="420" height="95"/>
  <text class="box-title" x="1152" y="180">Same delivery contract</text>
  <text class="small" x="1152" y="206">same phase vocabulary, gates, handoff protocol,</text>
  <text class="small" x="1152" y="228">and teamspace artifacts across hosts</text>

  <path class="thin" d="M442 198 H505"/>
  <path class="thin" d="M755 198 H815"/>
  <path class="thin" d="M1065 198 H1128"/>

  <!-- Orchestration and main flow -->
  <text class="section" x="52" y="305">Delivery run</text>
  <rect class="work" x="52" y="330" width="215" height="150"/>
  <text class="box-title" x="76" y="360">User task</text>
  <text class="small" x="76" y="386">Classified into one paradigm:</text>
  <text class="mono-small" x="92" y="412">dev/architecture-first</text>
  <text class="mono-small" x="92" y="436">enhancement/delta-design</text>
  <text class="mono-small" x="92" y="460">bugfix/hypothesis-driven</text>

  <rect class="orch" x="330" y="320" width="265" height="170"/>
  <text class="box-title" x="354" y="350">Delivery Orchestrator</text>
  <text class="small" x="354" y="378">Defines done, chooses execution,</text>
  <text class="small" x="354" y="400">routes phases, and owns gates.</text>
  <text class="mono-small" x="354" y="430">direct</text>
  <text class="mono-small" x="354" y="454">hybrid (default)</text>
  <text class="mono-small" x="354" y="478">delegated</text>

  <path class="line" d="M267 405 H330"/>

  <rect class="work" x="665" y="315" width="124" height="78"/>
  <text class="box-title" x="686" y="345">Reqs</text>
  <text class="small" x="686" y="370">scope, AC</text>

  <rect class="work" x="820" y="315" width="124" height="78"/>
  <text class="box-title" x="841" y="345">TestPlan</text>
  <text class="small" x="841" y="370">risk, manuals</text>

  <rect class="work" x="975" y="315" width="124" height="78"/>
  <text class="box-title" x="996" y="345">Design</text>
  <text class="small" x="996" y="370">delta, contract</text>

  <rect class="work" x="1130" y="315" width="124" height="78"/>
  <text class="box-title" x="1151" y="345">Build</text>
  <text class="small" x="1151" y="370">story, code</text>

  <rect class="review" x="665" y="455" width="170" height="88"/>
  <text class="box-title" x="688" y="485">Code review</text>
  <text class="small" x="688" y="512">lead + specialists</text>

  <rect class="review" x="875" y="455" width="170" height="88"/>
  <text class="box-title" x="898" y="485">Review research</text>
  <text class="small" x="898" y="512">verify each finding</text>

  <rect class="review" x="1085" y="455" width="170" height="88"/>
  <text class="box-title" x="1108" y="485">Fix</text>
  <text class="small" x="1108" y="512">parallel by file</text>

  <rect class="verify" x="1290" y="315" width="124" height="78"/>
  <text class="box-title" x="1311" y="345">Verify</text>
  <text class="small" x="1311" y="370">API/E2E/reg</text>

  <rect class="out" x="1445" y="315" width="124" height="78"/>
  <text class="box-title" x="1466" y="345">Deliver</text>
  <text class="small" x="1466" y="370">report + risks</text>

  <path class="line" d="M595 405 C620 370, 632 354, 665 354"/>
  <path class="line" d="M789 354 H820"/>
  <path class="line" d="M944 354 H975"/>
  <path class="line" d="M1099 354 H1130"/>
  <path class="line" d="M1254 354 H1290"/>
  <path class="line" d="M1414 354 H1445"/>
  <path class="line" d="M1192 393 C1192 430, 750 420, 750 455"/>
  <path class="line" d="M835 499 H875"/>
  <path class="line" d="M1045 499 H1085"/>
  <path class="line" d="M1170 543 C1170 590, 1340 410, 1352 393"/>
  <path class="dash" d="M960 543 C960 578, 750 578, 750 545"/>
  <text class="tiny" x="772" y="595" fill="#b85450">request changes / needs more evidence loops back</text>

  <!-- Mechanism cards -->
  <text class="section" x="52" y="650">What makes it AgentCorp</text>
  <rect class="gate" x="52" y="675" width="345" height="118"/>
  <text class="box-title" x="76" y="705">Author/reviewer separation</text>
  <text class="small" x="76" y="732">The author of an artifact does not approve it.</text>
  <text class="small" x="76" y="756">Direct execution keeps review as sponsor gate.</text>

  <rect class="gate" x="430" y="675" width="345" height="118"/>
  <text class="box-title" x="454" y="705">Finding circuit breaker</text>
  <text class="small" x="454" y="732">Code-review findings pass through review-research</text>
  <text class="small" x="454" y="756">before any review-fixer edits code.</text>

  <rect class="gate" x="808" y="675" width="345" height="118"/>
  <text class="box-title" x="832" y="705">Mechanical handoff + quality gate</text>
  <text class="small" x="832" y="732">Assignment/receipt validates envelope first;</text>
  <text class="small" x="832" y="756">phase gate then judges evidence.</text>

  <rect class="ledger" x="1186" y="675" width="363" height="118"/>
  <text class="box-title" x="1210" y="705">teamspace evidence trail</text>
  <text class="mono-small" x="1210" y="732">teamspace/tasks/&lt;task_id&gt;/</text>
  <text class="small" x="1210" y="756">task.md, manifest.md, handoffs, phase</text>
  <text class="small" x="1210" y="778">artifacts, review research, verification results</text>

  <!-- Artifact connectors -->
  <path class="link" d="M462 490 C462 585, 1368 610, 1368 675"/>
  <path class="link" d="M727 393 C727 610, 1368 615, 1368 675"/>
  <path class="link" d="M882 393 C882 610, 1368 620, 1368 675"/>
  <path class="link" d="M1037 393 C1037 610, 1368 625, 1368 675"/>
  <path class="link" d="M960 543 C960 620, 1368 635, 1368 675"/>
  <path class="link" d="M1352 393 C1352 560, 1368 630, 1368 675"/>

  <text class="tiny" x="52" y="840">Figure intent: explain the project to developers reading the README. Internal phase branches and full artifact paths belong in the text below the figure.</text>
</svg>
